<?xml version="1.0" standalone="no"?>
<!DOCTYPE svg PUBLIC "-//W3C//DTD SVG 20010904//EN"
 "http://www.w3.org/TR/2001/REC-SVG-20010904/DTD/svg10.dtd">
<svg version="1.0" xmlns="http://www.w3.org/2000/svg"
 width="50.000000pt" height="50.000000pt" viewBox="0 0 50.000000 50.000000"
 preserveAspectRatio="xMidYMid meet">

<g transform="translate(0.000000,50.000000) scale(0.100000,-0.100000)"
fill="#000000" stroke="none">
<path d="M79 421 l-29 -29 0 -142 0 -142 29 -29 29 -29 142 0 142 0 29 29 29
29 0 142 0 142 -29 29 -29 29 -142 0 -142 0 -29 -29z m326 -16 c24 -23 25 -29
25 -155 0 -126 -1 -132 -25 -155 -23 -24 -29 -25 -155 -25 -126 0 -132 1 -155
25 -24 23 -25 29 -25 155 0 180 0 180 180 180 126 0 132 -1 155 -25z"/>
<path d="M161 338 c-1 -9 4 -28 10 -41 12 -27 -2 -67 -23 -67 -11 0 -37 -29
-38 -42 0 -14 31 -8 36 6 3 8 12 12 20 9 8 -3 27 0 42 6 24 9 87 17 160 20 34
1 26 19 -10 23 -41 4 -45 32 -5 36 15 2 27 6 27 9 0 14 -48 42 -72 43 -23 0
-27 -4 -25 -22 2 -20 -3 -23 -36 -26 -41 -3 -64 9 -77 43 -7 16 -9 17 -9 3z"/>
</g>
</svg>
